<?xml version="1.0" encoding="utf-8"?>
<!-- Generator: Adobe Illustrator 21.1.0, SVG Export Plug-In . SVG Version: 6.00 Build 0)  -->
<svg version="1.1" baseProfile="tiny" xmlns="http://www.w3.org/2000/svg" xmlns:xlink="http://www.w3.org/1999/xlink" x="0px"
	 y="0px" viewBox="0 0 64 64" xml:space="preserve">
<g id="hash_rate" display="none">
	<g display="inline">
		<path fill="#06C963" d="M31.5946827,11.5517998c-13.5244007,0-24.5272999,11.0029011-24.5272999,24.5273018
			c0,5.7255974,2.0156174,11.2958984,5.6747999,15.6884995c0.1904001,0.2264977,0.4716997,0.3583984,0.7685003,0.3583984h36.1689987
			c0.2968979,0,0.5780983-0.1319008,0.7684975-0.3604012c3.6591988-4.3925972,5.6748199-9.9637985,5.6748199-15.6864967
			C56.1230011,22.5547009,45.1200829,11.5517998,31.5946827,11.5517998 M49.2050819,50.1259995H13.985383
			c-3.1749001-3.9756012-4.9180002-8.9444008-4.9180002-14.0468979c0-12.4219017,10.1054993-22.5273018,22.5272999-22.5273018
			c12.4218998,0,22.5283184,10.1054001,22.5283184,22.5273018C54.1230011,41.1815987,52.3798828,46.1493988,49.2050819,50.1259995"
			/>
		<path fill="#06C963" d="M42.3251839,28.1289005c-0.625,0-1.2363014,0.2118988-1.7373009,0.5986004
			c-0.0331993,0.0214996-0.0653992,0.0458984-0.0967026,0.0703983l-11.3114986,9.3642025
			c-1.1786823,0.8036995-1.8817997,2.1327972-1.8808994,3.5536995c0,2.3691978,1.9277992,4.2968979,4.2978992,4.2968979
			c1.1533184,0,2.2383175-0.4530983,3.0869007-1.3153992c0.1796989-0.1856003,0.3428001-0.3897018,0.4971008-0.6231003
			l9.3680992-11.2988014c0.0303001-0.0351982,0.0566978-0.0741997,0.0811005-0.1132965
			c0.3623009-0.4941025,0.5527-1.0703011,0.5527-1.6758022C45.1825829,29.4111004,43.900383,28.1289005,42.3251839,28.1289005
			 M42.9931831,31.5116997c-0.0166016,0.0195007-0.0312996,0.0401001-0.045002,0.0606003l-9.3418007,11.2675018
			c-0.0252991,0.0312996-0.0487976,0.0625-0.0702972,0.0956993c-0.0858994,0.1329002-0.1786995,0.2558975-0.3095016,0.3945999
			c-0.4345818,0.4403992-1.0136986,0.6825981-1.6299,0.6825981c-1.2665997,0-2.2978992-1.0303001-2.2978992-2.2978973
			c-0.0009003-0.7597008,0.3759995-1.4697037,1.0811005-1.9560013l11.3055992-9.3526001
			c0.032299-0.0214005,0.0635185-0.0449009,0.0928001-0.0703011c0.1123009-0.0956993,0.2969017-0.2069988,0.5469017-0.2069988
			c0.4726982,0,0.857399,0.3848,0.857399,0.857399C43.1825829,31.2227001,43.0790825,31.4022999,42.9931831,31.5116997"/>
		<path fill="#06C963" d="M14.9540825,35.3544998h-1.8212996c-0.5527,0-1,0.4473-1,1c0,0.5536995,0.4473,1,1,1h1.8212996
			c0.5527,0,1-0.4463005,1-1C15.9540825,35.8017998,15.5067825,35.3544998,14.9540825,35.3544998"/>
		<path fill="#06C963" d="M18.7821827,22.6063995c-0.3906002-0.3906002-1.0233994-0.3906002-1.4139996,0
			c-0.3907013,0.3915997-0.3907013,1.0244999,0,1.4141006l1.3719997,1.3710995
			c0.1952991,0.1953011,0.4512005,0.2930012,0.7070999,0.2930012c0.2558002,0,0.5117168-0.0977001,0.7070007-0.2930012
			c0.3905983-0.3895988,0.3905983-1.0243988,0-1.4140987L18.7821827,22.6063995z"/>
		<path fill="#06C963" d="M31.8231831,20.2567997c0.5528164,0,0.9999981-0.4463005,0.9999981-1v-1.7441006
			c0-0.5527-0.4471817-1-0.9999981-1c-0.5527,0-1,0.4473-1,1v1.7441006
			C30.8231831,19.8104992,31.270483,20.2567997,31.8231831,20.2567997"/>
		<path fill="#06C963" d="M44.6894836,22.6289005l-1.347702,1.3495998c-0.3905983,0.3896999-0.3905983,1.0235004,0,1.4140987
			c0.1953011,0.1943016,0.4512177,0.2929001,0.7070007,0.2929001c0.2559013,0,0.5116997-0.0985985,0.7070999-0.2929001
			l1.347599-1.3495998c0.3906021-0.3906994,0.3906021-1.0234985,0-1.4140987
			C45.7118835,22.2383003,45.0800819,22.2383003,44.6894836,22.6289005"/>
		<path fill="#06C963" d="M50.0194817,35.3554993h-1.8973999c-0.5527992,0-1,0.4472008-1,1c0,0.5527,0.4472008,1,1,1h1.8973999
			c0.5527992,0,1-0.4473,1-1C51.0194817,35.8027,50.5722809,35.3554993,50.0194817,35.3554993"/>
	</g>
</g>
<g id="ultimo_bloque" display="none">
	<g display="inline">
		<path fill="#06C963" d="M32.4570007,5.5752001c-13.6074238,0-24.6787224,11.0703001-24.6787224,24.6791992
			c0,13.6079006,11.0712986,24.6787014,24.6787224,24.6787014c13.6074753,0,24.6786766-11.0708008,24.6786766-24.6787014
			C57.1356773,16.6455002,46.064476,5.5752001,32.4570007,5.5752001 M32.4570007,52.9331017
			c-12.5049229,0-22.6787224-10.1738014-22.6787224-22.6787014c0-12.5058994,10.1738005-22.6791992,22.6787224-22.6791992
			c12.5048752,0,22.6786766,10.1733007,22.6786766,22.6791992C55.1356773,42.7593002,44.9618759,52.9331017,32.4570007,52.9331017"
			/>
		<path fill="#06C963" d="M17.1395779,37.3330002c-0.5956993,0.3432999-0.7998009,1.1064987-0.4559994,1.7011986
			c0.3436985,0.5981026,1.1064224,0.8012009,1.7020988,0.4580002c0.5967007-0.3446999,0.7998009-1.1078987,0.4570999-1.7030983
			C18.4979992,37.1924019,17.7353783,36.9883003,17.1395779,37.3330002"/>
		<path fill="#06C963" d="M47.7265778,22.5522003c0.5965996-0.3446999,0.8006973-1.1069012,0.4570007-1.7035999
			c-0.3438034-0.5951996-1.1074028-0.8003006-1.7022018-0.4560013c-0.5965996,0.3447018-0.8007011,1.1069012-0.4570007,1.7031002
			C46.3681755,22.6914005,47.1308784,22.8964996,47.7265778,22.5522003"/>
		<path fill="#06C963" d="M24.4901772,16.4594994c0.5957012-0.3437996,0.8008232-1.1069994,0.4570999-1.7016993
			c-0.3456993-0.5962-1.1084003-0.8002996-1.7031994-0.4569998c-0.5976009,0.3446999-0.8006992,1.1068993-0.4570007,1.7031002
			C23.1308765,16.6005993,23.8935776,16.8047009,24.4901772,16.4594994"/>
		<path fill="#06C963" d="M40.1825752,43.6421013c-0.5956993,0.3432999-0.7987976,1.1063995-0.4550972,1.7011986
			c0.344799,0.5970993,1.1065216,0.8012009,1.7011986,0.4580002c0.597702-0.344799,0.8008003-1.1069984,0.4570007-1.7032013
			C41.5419998,43.5023994,40.7792778,43.2974014,40.1825752,43.6421013"/>
		<path fill="#06C963" d="M24.532177,43.5483017c-0.5956993-0.3437004-1.3584003-0.1406021-1.7020988,0.4570999
			c-0.3446999,0.5942001-0.1396999,1.357399,0.4559994,1.7010994c0.5956993,0.3442993,1.3593998,0.1401978,1.7031994-0.4550018
			C25.3339996,44.653801,25.1288776,43.892601,24.532177,43.5483017"/>
		<path fill="#06C963" d="M41.4716759,14.2069998c-0.5966759-0.3436995-1.357399-0.1415997-1.7011986,0.4561005
			c-0.3446999,0.5962-0.1416016,1.3583994,0.4541016,1.7030993c0.5976982,0.3451996,1.3594208,0.1401005,1.7030983-0.4569998
			C42.2724762,15.3144999,42.0692787,14.5502996,41.4716759,14.2069998"/>
		<path fill="#06C963" d="M17.0565777,22.7084999c0.5956993,0.3442001,1.3584232,0.1410999,1.7021999-0.4545994
			c0.3446999-0.5981007,0.1396008-1.3593998-0.4570007-1.7040997c-0.5956993-0.3442001-1.3583984-0.1392002-1.7021999,0.4569988
			C16.2548771,21.6025009,16.4599991,22.3656998,17.0565777,22.7084999"/>
		<path fill="#06C963" d="M47.6435776,37.4902c-0.5967026-0.3437004-1.3594017-0.1395988-1.7032013,0.4570999
			c-0.3437004,0.5942001-0.1385994,1.357399,0.4570999,1.7010994c0.5946999,0.3442993,1.357399,0.1402016,1.7031021-0.4559975
			C48.4442787,38.5956993,48.2392769,37.8344994,47.6435776,37.4902"/>
		<path fill="#06C963" d="M32.3183784,31.2812004c0.1288986,0,0.2586975-0.0249004,0.3827972-0.0755997l7.9980011-3.3150005
			c0.5108223-0.2119007,0.7528992-0.7959003,0.5410004-1.3071003c-0.2108994-0.5098-0.797802-0.75-1.3065987-0.5410004
			l-7.3828011,3.0600014L22.0351772,18.6294003c-0.3915997-0.3901005-1.0254002-0.387701-1.4151001,0.0028992
			c-0.3895988,0.3910999-0.3876991,1.023901,0.0029221,1.4141006L31.612278,30.9892998
			C31.8036766,31.1807003,32.0585785,31.2812004,32.3183784,31.2812004"/>
		<path fill="#06C963" d="M49.3964767,27.2607002c-1.4746017,0-2.6748009,1.1996994-2.6748009,2.6758003
			c0,1.4741001,1.2001991,2.6739006,2.6748009,2.6739006s2.6748009-1.1998005,2.6748009-2.6739006
			C52.0712776,28.4603996,50.8710785,27.2607002,49.3964767,27.2607002 M49.3964767,30.6103992
			c-0.3721008,0-0.6748009-0.3027992-0.6748009-0.6738987c0-0.3730011,0.3027-0.6758003,0.6748009-0.6758003
			s0.6748009,0.3027992,0.6748009,0.6758003C50.0712776,30.3076,49.7685776,30.6103992,49.3964767,30.6103992"/>
		<path fill="#06C963" d="M18.1913776,29.9365005c0-1.4761009-1.1991997-2.6758003-2.6737995-2.6758003
			c-1.4745779,0-2.6747999,1.1996994-2.6747999,2.6758003c0,1.4741001,1.200222,2.6739006,2.6747999,2.6739006
			C16.992178,32.6104012,18.1913776,31.4106007,18.1913776,29.9365005 M15.5175781,30.6103992
			c-0.3721008,0-0.6748009-0.3027992-0.6748009-0.6738987c0-0.3730011,0.3027-0.6758003,0.6748009-0.6758003
			c0.3710995,0,0.6737995,0.3027992,0.6737995,0.6758003C16.1913776,30.3076,15.8886776,30.6103992,15.5175781,30.6103992"/>
		<path fill="#06C963" d="M32.439476,15.7480001c1.4746017,0,2.6748009-1.1997004,2.6748009-2.6747999
			s-1.2001991-2.6753006-2.6748009-2.6753006c-1.474699,0-2.6748981,1.2002001-2.6748981,2.6753006
			S30.964777,15.7480001,32.439476,15.7480001 M32.439476,12.3978996c0.3720016,0,0.6748009,0.3032999,0.6748009,0.6753006
			c0,0.3720999-0.3027992,0.6747999-0.6748009,0.6747999c-0.372097,0-0.6748981-0.3027-0.6748981-0.6747999
			C31.7645779,12.7011995,32.067379,12.3978996,32.439476,12.3978996"/>
		<path fill="#06C963" d="M32.439476,44.2471008c-1.474699,0-2.6748981,1.2006989-2.6748981,2.6758003
			c0,1.4740982,1.2001991,2.6737976,2.6748981,2.6737976c1.4746017,0,2.6748009-1.1996994,2.6748009-2.6737976
			C35.1142769,45.4477997,33.9140778,44.2471008,32.439476,44.2471008 M32.439476,47.5966988
			c-0.372097,0-0.6748981-0.3027992-0.6748981-0.6737976c0-0.3731003,0.3028011-0.6758003,0.6748981-0.6758003
			c0.3720016,0,0.6748009,0.3027,0.6748009,0.6758003C33.1142769,47.2938995,32.8114777,47.5966988,32.439476,47.5966988"/>
	</g>
</g>
<g id="dificultad" display="none">
	<path display="inline" fill="#06C963" d="M56.3407784,43.2509995c-0.3906021-0.3905983-1.0234032-0.3905983-1.4140015,0
		l-5.9833984,5.9834023V23.1660004c0-4.9004002-3.9863777-8.8877001-8.8868027-8.8877001
		c-4.9002991,0-8.8866978,3.9872999-8.8866978,8.8877001v18.6064987c0,3.7959023-3.0897999,6.8857002-6.8866997,6.8857002
		c-3.7978001,0-6.8867016-3.089798-6.8867016-6.8857002V15.7020998l5.9824009,5.9833994
		c0.1952991,0.1954002,0.4512005,0.2930012,0.7070007,0.2930012c0.2558994,0,0.5117989-0.0976009,0.7071209-0.2930012
		c0.3905773-0.3905983,0.3905773-1.0233994,0-1.4130001l-7.6895218-7.6913986c-0.375-0.375-1.0389996-0.375-1.4139996,0
		l-7.6904778,7.6913986c-0.3906221,0.3896008-0.3906221,1.0224018,0,1.4130001c0.3905778,0.3907013,1.023478,0.3907013,1.4140782,0
		l5.9833994-5.9833994v26.0704002c0,4.8994026,3.9863005,8.8857002,8.8867006,8.8857002s8.8866978-3.9862976,8.8866978-8.8857002
		V23.1660004c0-3.7978001,3.089901-6.887701,6.8866997-6.887701c3.7979012,0,6.8868027,3.089901,6.8868027,6.887701v26.0684013
		l-5.982502-5.9834023c-0.3915977-0.3905983-1.0233994-0.3905983-1.4139977,0c-0.3906021,0.3916016-0.3906021,1.0233994,0,1.4140015
		l7.6893997,7.6904984c0.1884995,0.1875,0.4423981,0.2938995,0.7070999,0.2938995
		c0.2666206,0,0.5205002-0.1063995,0.7069969-0.2938995l7.690403-7.6904984
		C56.7313766,44.2743988,56.7313766,43.642601,56.3407784,43.2509995"/>
</g>
<g id="altura" display="none">
	<g display="inline">
		<path fill="#06C963" d="M17.4996471,47.6516762h10.3599262c0.511591,0,0.925621-0.4139366,0.925621-0.925621
			c0-0.5115891-0.4140301-0.925621-0.925621-0.925621H19.73419l25.921011-25.9210129v8.1253834
			c0,0.5116825,0.4139404,0.925621,0.9256248,0.925621c0.5115891,0,0.925621-0.4139385,0.925621-0.925621V17.6449699
			c0-0.1202374-0.0253448-0.2404766-0.0714607-0.3534946c-0.0931168-0.2268696-0.2738914-0.4076443-0.5007591-0.500761
			c-0.113018-0.0470219-0.2331657-0.0713654-0.3534012-0.0713654H36.2209129c-0.5116043,0-0.925621,0.4139385-0.925621,0.925621
			c0,0.511591,0.4140167,0.925621,0.925621,0.925621h8.12537L18.4252682,44.4916039v-8.1263084
			c0-0.5107574-0.4140301-0.925621-0.925621-0.925621s-0.925621,0.4148636-0.925621,0.925621v10.3607597
			C16.5740261,47.2377396,16.9880562,47.6516762,17.4996471,47.6516762"/>
		<path fill="#06C963" d="M54.074379,9.4101782H10.3757858c-0.511591,0-0.925621,0.4139376-0.925621,0.925621v43.6985016
			c0,0.5116806,0.4140301,0.925621,0.925621,0.925621H54.074379c0.5115891,0,0.925621-0.4139404,0.925621-0.925621V10.3357992
			C55,9.8241158,54.585968,9.4101782,54.074379,9.4101782 M53.1487579,53.1086807H11.3014078V11.2614212h41.8473511V53.1086807z"/>
	</g>
</g>
<g id="recompensa" display="none">
	<path display="inline" fill="#06C963" d="M40.7050972,29.0272999c-0.2392998,0-0.4780006,0.0098-0.7182999,0.0137005v-0.2720013
		v-5.7669983v-1.2740002V15.96v-1.5966997c0-4.3955002-8.1860104-6.7661004-15.8891106-6.7661004
		C16.3959999,7.5971999,8.21,9.9678001,8.21,14.3633003V15.96v5.7680006v1.2740002v5.7669983v1.2740002v5.7671013v1.2738991
		v2.7098999v3.0572014c0,4.3950005,8.1859999,6.7670975,15.8876867,6.7670975c0.2392006,0,0.4790001-0.0087967,0.7192001-0.0141983
		v0.5951996c0,4.3955002,8.185112,6.7666016,15.8882103,6.7666016c7.7025986,0,15.8886986-2.3711014,15.8886986-6.7666016
		v-5.7671013v-1.2748985v-5.766098v-1.5972023C56.5937958,31.3978996,48.4076958,29.0272999,40.7050972,29.0272999
		 M26.8168869,50.1991997v-3.6338005c0.3892002,0.295002,0.829113,0.5684013,1.3091125,0.8267021
		c0.5248871,0.2817001,1.0907879,0.544899,1.7080002,0.7807999c0.6107883,0.2342987,1.2700005,0.4393997,1.9520874,0.6268997
		c2.6817093,0.7383003,5.8350105,1.125,8.9190102,1.125c5.3828011,0,10.9926987-1.161602,13.8886986-3.3608017v3.6352005
		c0,2.25-5.9399986,4.7666016-13.8886986,4.7666016C32.7558975,54.9658012,26.8168869,52.4491997,26.8168869,50.1991997
		 M37.9867973,14.3633003c0,0.1976995-0.0610008,0.3964996-0.1498985,0.5966997
		c-0.1488991,0.3359003-0.4160004,0.6717997-0.7968979,1.0009003c-0.4023018,0.3462-0.9262047,0.6822004-1.5571022,0.9990988
		c-2.4638977,1.2373009-6.5468979,2.1709003-11.3852119,2.1709003c-4.8369999,0-8.9208994-0.9335995-11.3837996-2.1709003
		c-0.630887-0.3168983-1.1547995-0.6528988-1.5571995-0.9990988c-0.3808002-0.3291006-0.6469002-0.665-0.7967997-1.0009003
		C10.2720003,14.7598,10.21,14.5609999,10.21,14.3633003c0-2.25,5.9388876-4.7660999,13.8876867-4.7660999
		C32.0468979,9.5972004,37.9867973,12.1133003,37.9867973,14.3633003 M54.5937958,43.1571999
		c0,0.0908012-0.0249977,0.1826019-0.0439987,0.2748985c-0.0697975,0.3330002-0.2490005,0.6690025-0.5546989,1
		c-0.3183022,0.3432999-0.7700005,0.6783028-1.315403,1c-2.3647995,1.3931007-6.7255974,2.4927025-11.9745979,2.4927025
		c-1.7939987,0-3.4780006-0.1338005-5.0219994-0.357399c-0.6640968-0.0967026-1.3041992-0.2080002-1.910202-0.3384018
		c-0.6839981-0.1459999-1.3319969-0.3110008-1.9321079-0.4916992c-1.2480011-0.3778992-2.2939014-0.8241997-3.109787-1.3052025
		c-0.5450001-0.3216972-0.9961128-0.6567001-1.3140011-1c-0.3071117-0.3309975-0.4863129-0.6669998-0.5562134-1
		c-0.0189991-0.0922966-0.0438995-0.1840973-0.0438995-0.2748985v-3.9560013
		c0.5219994,0.3959999,1.1299,0.7588005,1.8120003,1.0869026c0.5591125,0.2689972,1.1679993,0.5107002,1.8120003,0.7338982
		c0.6338005,0.2182007,1.2968998,0.4169998,1.9951134,0.5903015c1.7270966,0.4258003,3.6210976,0.7108994,5.5507965,0.8485985
		c0.3330002,0.0245018,0.6660004,0.0419998,1,0.0572014c0.3339996,0.016098,0.6669998,0.0238991,1,0.0298004
		c0.2402992,0.0038986,0.4790001,0.0140991,0.7182999,0.0140991c5.3828011,0,10.9926987-1.1626015,13.8886986-3.3608017V43.1571999z
		 M10.8090878,37.0839996c-0.3062-0.3311005-0.4854002-0.6669998-0.5552006-1
		C10.2348881,35.9921989,10.21,35.9003983,10.21,35.8101006v-3.6343002
		c2.8959999,2.1982002,8.5047865,3.3602982,13.8876867,3.3602982c0.2490005,0,0.5-0.0087967,0.7514-0.0140991
		c-0.0072994,0.091301-0.0321999,0.1781998-0.0321999,0.2719002v0.2901001v1v0.3071022v0.6928978v2.4790001
		c-0.2402,0.0054016-0.4750996,0.0140991-0.7192001,0.0140991c-5.2486,0-9.6088991-1.0990982-11.9736872-2.4930992
		C11.5790873,37.7631989,11.1269999,37.4267998,10.8090878,37.0839996 M24.0976868,21.1308994
		c5.3833141,0,10.9931107-1.162199,13.8891106-3.360899v3.9580002c0,0.0903988-0.0248985,0.1821995-0.0438995,0.2740002
		c-0.0698967,0.3329983-0.2490997,0.6688995-0.5551987,1c-0.3179016,0.3426991-0.7700005,0.6781998-1.3169022,1
		c-2.3647003,1.3929996-6.7241096,2.4920998-11.9731102,2.4920998c-5.2486,0-9.6069994-1.0991001-11.9716864-2.4920998
		c-0.5459127-0.3218002-0.9981127-0.6573009-1.3159132-1c-0.3071995-0.3311005-0.4863997-0.6670017-0.5562-1
		C10.2348881,21.9102001,10.21,21.8183994,10.21,21.7280006v-3.9570007
		C13.1059999,19.9687004,18.7147865,21.1308994,24.0976868,21.1308994 M24.0976868,28.4941006
		c5.3833141,0,10.9931107-1.1620998,13.8891106-3.3603001v3.6351986c0,0.0904007-0.0248985,0.1822014-0.0438995,0.2740002
		c-0.0058975,0.0293007-0.0058975,0.0591011-0.0142021,0.0879002c-2.0087967,0.1473999-3.9769974,0.4531002-5.7548981,0.9120998
		c-1.0737114,0.2772999-2.0697975,0.6132011-2.9697113,1c-1.5443993,0.6640015-2.7890854,1.482399-3.5492992,2.4589996
		c-0.5097866,0.0209007-1.0277863,0.0340996-1.5571003,0.0340996c-5.2486,0-9.6088991-1.0990982-11.9736872-2.4930992
		c-0.5449123-0.3223-0.9969997-0.657299-1.3149118-1c-0.3062-0.3310986-0.4854002-0.6669998-0.5552006-1
		C10.2348881,28.9512005,10.21,28.8593998,10.21,28.7689991V25.1348
		C13.1059999,27.3320007,18.7147865,28.4941006,24.0976868,28.4941006 M54.4437981,36.3911018
		c-0.1489029,0.3359985-0.4160004,0.6718979-0.7967987,1c-0.4019012,0.3471985-0.9263039,0.6830978-1.5572014,1
		c-2.4637985,1.2367973-6.5467987,2.1708984-11.3847008,2.1708984c-0.2431984,0-0.4780006-0.0102005-0.7182999-0.0150986
		c-0.3358994-0.0059013-0.6708984-0.0137024-1-0.028801c-0.3368988-0.0161018-0.6708984-0.0347023-1-0.0591011
		c-0.6058998-0.0458984-1.1937981-0.1068993-1.7650986-0.1796989c-0.6470032-0.0820007-1.2666016-0.1836014-1.8638-0.2969017
		c-0.6802025-0.1302986-1.3232002-0.2793007-1.9281998-0.4442978c-1.2070122-0.3291016-2.2559128-0.7187996-3.1089115-1.1469994
		c-0.1996994-0.1011009-0.3847866-0.2031021-0.5629997-0.3071022c-0.3837872-0.2245979-0.7187004-0.4561005-0.9941006-0.6928978
		c-0.1176872-0.1020012-0.2348995-0.2041016-0.3306007-0.3071022c-0.2152996-0.2290001-0.3632984-0.4609985-0.4662991-0.6928978
		c-0.0449009-0.1030006-0.0811005-0.205101-0.1030006-0.3071022c-0.0209999-0.0966988-0.0468998-0.1939011-0.0468998-0.2901001
		c0-0.1200981,0.0249004-0.2411995,0.0581131-0.3618011c0.0976868-0.3549995,0.3397865-0.7113991,0.7016869-1.060997
		c0.4472008-0.4331017,1.0853996-0.8521004,1.8862-1.2411995c1.4722004-0.714901,3.4839096-1.3218021,5.8779106-1.6968021
		c0.7319984-0.1138,1.4990005-0.2069988,2.294899-0.2738991c0.1172028-0.0098,0.2344017-0.0200005,0.3511009-0.0293007
		c0.3291016-0.0238991,1.7192993-0.0830002,2-0.0879002c0.2402992-0.0049,0.4751015-0.0146999,0.7182999-0.0146999
		c7.9487,0,13.8886986,2.5165997,13.8886986,4.7665997C54.5937958,35.9921989,54.5326958,36.1913986,54.4437981,36.3911018
		 M10.21,39.7938995v-0.5770988c2.8959999,2.1982002,8.5047865,3.3602982,13.8876867,3.3602982
		c0.2392006,0,0.4790001-0.0086975,0.7192001-0.0140991v0.5942001v1.2748985v3.1719017
		c-0.2402,0.0054016-0.4750996,0.0141983-0.7192001,0.0141983c-7.9487991,0-13.8876867-2.516098-13.8876867-4.7670975V39.7938995z"
		/>
</g>
<g id="hash" display="none">
	<path display="inline" fill="#06C963" d="M33.9453011,48.0059013c-0.0547028,0-0.1055145,0.0135994-0.1592026,0.0155983
		l-2.498024-9.8036995c0.8926239-0.3936005,1.6728134-0.9921989,2.2822266-1.7383003l3.1338005,1.7900009
		c0.1562843,0.089901,0.327198,0.1319008,0.4950981,0.1319008c0.347702,0,0.6836014-0.1807022,0.8691864-0.5039024
		c0.2733994-0.4794998,0.1074142-1.0909004-0.3721008-1.3642998l-3.1366844-1.7910004
		c0.2450981-0.6610985,0.3857002-1.3721008,0.3857002-2.1181984c0-1.3779011-0.4639015-2.6464996-1.235302-3.6699009
		l11.0643883-11.6103992c0.7109985,0.4326992,1.5360985,0.6963005,2.4267998,0.6963005
		c2.5858994,0,4.6904144-2.1045008,4.6904144-4.6904011c0-2.5868998-2.1045151-4.6913996-4.6904144-4.6913996
		c-2.5868874,0-4.6913986,2.1044998-4.6913986,4.6913996c0,0.9727001,0.2987976,1.8760004,0.8065987,2.6260004L32.267601,27.5702991
		c-0.980526-0.6679993-2.1621265-1.0595989-3.4346008-1.0595989c-0.6894245,0-1.350626,0.1201992-1.9687252,0.3311005
		l-0.5830002-1.0859013c-0.2598-0.4863987-0.8671989-0.6700001-1.3535995-0.4081993
		c-0.4862995,0.2607002-0.6709003,0.8670998-0.4082012,1.3535004l0.585001,1.0897999
		c-1.4473,1.1191998-2.3848,2.8671989-2.3848,4.8330002c0,0.7285004,0.1348,1.4248009,0.3691998,2.0732994l-2.2294998,1.2518997
		c-0.4815006,0.2686005-0.6532993,0.8799019-0.3827991,1.3604012c0.1835995,0.3270988,0.5224247,0.5107002,0.8729992,0.5107002
		c0.164999,0,0.3330002-0.0410004,0.4883003-0.1278992l2.2294998-1.25c1.1210995,1.3964996,2.8388996,2.2938995,4.765625,2.2938995
		c0.1737747,0,0.346674-0.0116997,0.5175743-0.0263023l2.5,9.8125c-1.5321999,0.7723999-2.5956993,2.3446999-2.5956993,4.1748009
		c0,2.5858994,2.1044998,4.6893997,4.6904259,4.6893997c2.5859985,0,4.6894875-2.1035004,4.6894875-4.6893997
		C38.6347885,50.1113014,36.5312996,48.0059013,33.9453011,48.0059013 M47.2011871,10.6582003
		c1.4834137,0,2.6904144,1.2069998,2.6904144,2.6913996c0,1.4834003-1.2070007,2.6904011-2.6904144,2.6904011
		c-1.4844017,0-2.6913986-1.2070007-2.6913986-2.6904011C44.5097885,11.8652,45.7167854,10.6582003,47.2011871,10.6582003
		 M24.7196751,32.6240005c0-2.2685013,1.844799-4.1133003,4.1133251-4.1133003c2.2675743,0,4.1123009,1.844799,4.1123009,4.1133003
		c0,2.267601-1.8447266,4.1123009-4.1123009,4.1123009C26.5644741,36.7363014,24.7196751,34.8916016,24.7196751,32.6240005
		 M33.9453011,55.3866997c-1.4834137,0-2.6904259-1.2070007-2.6904259-2.6893997
		c0-1.4844017,1.2070122-2.6913986,2.6904259-2.6913986c1.483387,0,2.6894875,1.2069969,2.6894875,2.6913986
		C36.6347885,54.1796989,35.428688,55.3866997,33.9453011,55.3866997"/>
	<path display="inline" fill="#06C963" d="M51.0956879,42.8046989c-0.5692863,0-1.0898018,0.1953011-1.5126877,0.5137024
		l-1.4648018-0.8370018c-0.4795113-0.2762985-1.0909119-0.1083984-1.3643112,0.3721008
		c-0.2743874,0.4794998-0.1073875,1.0908012,0.3721123,1.3652l1.468689,0.8378983
		c-0.0096893,0.0918007-0.0273018,0.1817017-0.0273018,0.2764015c0,1.3974991,1.131813,2.5293007,2.5283012,2.5293007
		c1.3965111,0,2.5283127-1.1318016,2.5283127-2.5293007C53.6240005,43.9365005,52.4921989,42.8046989,51.0956879,42.8046989"/>
	<path display="inline" fill="#06C963" d="M20.6073742,15.1815996L19.8085747,13.6924
		c0.3418007-0.4307003,0.5547009-0.9687996,0.5547009-1.5614996c0-1.3985004-1.1319008-2.5293007-2.5292759-2.5293007
		c-1.3965244,0-2.5283241,1.1308002-2.5283241,2.5293007c0,1.3954992,1.1317997,2.5292997,2.5283241,2.5292997
		c0.0731754,0,0.1415749-0.0165997,0.2128754-0.0225l0.7987995,1.4893007
		c0.1797009,0.3358994,0.5254002,0.5272999,0.8817997,0.5272999c0.1592007,0,0.3213005-0.0370998,0.4717007-0.1191006
		C20.6864758,16.2744007,20.8690758,15.6680002,20.6073742,15.1815996"/>
	<path display="inline" fill="#06C963" d="M20.7362747,19.6513996l1.8915997,3.5254002
		c0.1797009,0.3358994,0.5254002,0.5272999,0.8819008,0.5272999c0.1590996,0,0.3213005-0.0380993,0.4715996-0.1182003
		c0.4874001-0.2616997,0.6700001-0.8680992,0.4081993-1.3544998l-1.8915749-3.5252991
		c-0.260725-0.4854012-0.8652248-0.6709003-1.3535233-0.4082012C20.6581745,18.5585995,20.474575,19.1650009,20.7362747,19.6513996"
		/>
	<path display="inline" fill="#06C963" d="M44.6444855,40.4990005l-3.4745865-1.982399
		c-0.4834137-0.2773018-1.0907974-0.1094017-1.3642006,0.372097c-0.2743988,0.4794998-0.1074982,1.0898018,0.3719902,1.3633003
		l3.4745979,1.9834023c0.1573143,0.089798,0.3272133,0.1317978,0.4952126,0.1317978
		c0.3475876,0,0.6836014-0.1806984,0.8691025-0.5038986C45.2910004,41.3828011,45.1230011,40.7724991,44.6444855,40.4990005"/>
	<path display="inline" fill="#06C963" d="M17.3700752,37.9043007l-1.1846008,0.6641006
		c-0.3797989-0.2266006-0.8172989-0.365303-1.2909994-0.365303c-1.3973999,0-2.5292997,1.1319008-2.5292997,2.5293007
		c0,1.3964996,1.1318998,2.5283012,2.5292997,2.5283012c1.3955259,0,2.5283995-1.1318016,2.5283995-2.5283012
		c0-0.1835976-0.0214996-0.3602982-0.0585995-0.5321999l0.9834003-0.5517998
		c0.482399-0.2695007,0.6543255-0.8788986,0.3836994-1.3612976C18.4618759,37.8065987,17.854475,37.6328011,17.3700752,37.9043007"
		/>
</g>
<g id="miners" display="none">
	<path display="inline" fill="#06C963" d="M32.544735,7.7660999c-13.5698013,0-24.6098022,11.0401001-24.6098022,24.6098995
		c0,13.5703011,11.0400009,24.610302,24.6098022,24.610302c13.5698967,0,24.6098938-11.0400009,24.6098938-24.610302
		C57.1546288,18.8062,46.1146317,7.7660999,32.544735,7.7660999 M18.8089333,50.3184013
		c7.9477005-3.3882027,9.4316006-5.0195999,9.7875996-6.1622009c0.0303001-0.0960999,0.0464001-0.1972008,0.0464001-0.297802
		v-2.0692978c0-0.2617989-0.1030998-0.5126991-0.2861996-0.6992989c-1.2679996-1.2968025-2.25-3.0986023-2.8388004-5.2089005
		c-0.0629997-0.222702-0.2001991-0.4160995-0.3881989-0.5489006c-0.6162014-0.4336014-0.9829006-1.1518021-0.9829006-1.922802
		c0-0.6830978,0.2919998-1.1861,0.5380993-1.4882984c0.144001-0.1786995,0.2226009-0.4004002,0.2226009-0.6308994v-4.6338005
		c0-4.5498009,2.7544003-7.0550995,7.7544003-7.0550995c5.070797,0,7.7509956,2.4389,7.7509956,7.0550995v4.6329002
		c0,0.2298985,0.0786018,0.4531002,0.2236023,0.6308002c0.2460976,0.3022976,0.5391006,0.8062,0.5391006,1.4892979
		c0,0.7719994-0.3677025,1.4902-0.983902,1.922802c-0.1879997,0.1328011-0.3261986,0.327198-0.3881989,0.5489006
		c-0.5898018,2.1112976-1.5718002,3.9120979-2.8389015,5.2089005c-0.1830978,0.1875-0.285099,0.4375-0.285099,0.6992989v2.0692978
		c0,0.1006012,0.0150986,0.2017021,0.0463982,0.297802c0.3540001,1.1357994,1.8178024,2.7539978,9.6366997,6.0976982
		c-3.8237,2.9629021-8.6166992,4.7324028-13.817894,4.7324028C27.3807335,54.9863014,22.6199341,53.2431984,18.8089333,50.3184013
		 M48.0589294,48.8008003c-7.7383003-3.2373009-9.1322975-4.7118988-9.3793983-5.1416016v-1.4731979
		c1.2993011-1.4340019,2.3139992-3.3022003,2.9570007-5.4448013c0.9701996-0.8153992,1.5390968-2.0360985,1.5390968-3.3320007
		c0-0.8827972-0.2626991-1.7231979-0.7626991-2.4511986v-4.3017998c0-5.7548008-3.5541992-9.0550995-9.7509956-9.0550995
		c-6.1074009,0-9.7544003,3.3851986-9.7544003,9.0550995v4.3037987c-0.4927006,0.7251015-0.7607002,1.5810013-0.7607002,2.4491997
		c0,1.2949028,0.5678005,2.5137024,1.5370998,3.3310013c0.644001,2.142601,1.6587009,4.0117989,2.9589996,5.4458008v1.4731979
		c-0.2490997,0.4326019-1.6611996,1.9219017-9.5410004,5.2089996C12.6956329,44.7402,9.9349337,38.8759995,9.9349337,32.3759995
		c0-12.4678001,10.1430006-22.6098995,22.6098022-22.6098995s22.6098938,10.1420994,22.6098938,22.6098995
		C55.1546288,38.8408012,52.4227295,44.6758003,48.0589294,48.8008003"/>
</g>
<g id="legs" display="none">
	<g display="inline">
		<path fill="#06C963" d="M26.0577068,30.4004002c4.1917992,0,7.0086994-4.1268997,7.0086994-10.2705002
			c0-5.9951-2.6210995-12.1963005-7.0086994-12.1963005c-4.1469994,0-7.3959999,4.9355998-7.3959999,11.2334003
			C18.6617069,25.4657993,21.9107075,30.4004002,26.0577068,30.4004002 M26.0577068,9.9336004
			c2.6689129,0,5.0086994,4.7655993,5.0086994,10.1962996c0,4.9482002-2.0126991,8.2705002-5.0086994,8.2705002
			c-2.9253006,0-5.3959999-4.2285004-5.3959999-9.2334003S23.1324062,9.9336004,26.0577068,9.9336004"/>
		<path fill="#06C963" d="M39.0274048,30.4004002c3.6958008,0,6.5918007-4.9346008,6.5918007-11.2334003
			c0-6.2978001-2.8959999-11.2334003-6.5918007-11.2334003c-3.400898,0-5.2748985,3.9893003-5.2748985,11.2334003
			C33.7525063,26.4120998,35.6265068,30.4004002,39.0274048,30.4004002 M39.0274048,9.9336004
			c2.2182159,0,4.5918007,3.71,4.5918007,9.2333994c0,5.5235004-2.3735847,9.2334003-4.5918007,9.2334003
			c-2.0507851,0-3.2748985-3.4512005-3.2748985-9.2334003C35.7525063,13.3858004,36.9766197,9.9336004,39.0274048,9.9336004"/>
		<path fill="#06C963" d="M54.0967064,27.5098c-0.3139992-3.6641006-1.858902-4.4326-3.1000862-4.4326
			c-2.053215,0-4.1811142,2.3680992-4.3598137,2.5790997c-5.0361862,4.892601-5.2543983,7.9520988-1.0141869,14.235302
			c0.9247856,1.3710976,1.9530869,2.0654984,3.0560875,2.0654984c0.8266983,0,1.6049995-0.3886986,2.3101006-1.1562996
			C53.1304054,38.4668007,54.5244064,32.5038986,54.0967064,27.5098 M49.5157051,39.4473
			c-0.2143974,0.232399-0.5331993,0.5098-0.836998,0.5098c-0.3813019,0-0.8900871-0.4317017-1.3978996-1.1846008
			c-3.6724014-5.4413986-3.5391006-7.5146999,0.8046989-11.7411995c0.6889-0.7880993,2.089798-1.9540997,2.9111137-1.9540997
			c0.7968864,0,1.0400848,1.8192997,1.105999,2.6025009C52.4707069,31.9629002,51.2378044,37.5713005,49.5157051,39.4473"/>
		<path fill="#06C963" d="M17.2476196,24.5235004c-1.0610008-1.0967007-2.112813-1.652401-3.1270008-1.652401
			c-3.0189991,0-3.9712114,4.6231003-4.0799999,5.2110004c-0.6412115,5.1991997,0.1708879,9.5135994,2.2280006,11.8408012
			c0.9760876,1.1024971,2.1757879,1.6865005,3.4711876,1.6865005c1.3925991,0,2.8036995-0.6865005,4.0809994-1.9834023
			C23.6827068,35.7061005,22.7447071,30.2012005,17.2476196,24.5235004 M13.7676191,38.5976982
			c-1.652812-1.8691978-2.3042116-5.7089996-1.7509995-10.2079983c0.2089996-1.1026001,1.0287876-3.5186005,2.1039991-3.5186005
			c0.4390001,0,1.0390882,0.3711014,1.6900005,1.0430012c2.7240868,2.8125,6.6810875,8.1513977,2.5848885,12.3085976
			C16.7466202,39.8964996,15.0596189,40.0606003,13.7676191,38.5976982"/>
		<path fill="#06C963" d="M32.4082069,32.1231003c-3.637701,0-5.9818993,3.6464996-6.3798008,4.3134003
			c-8.6557865,9.8848-8.3168983,14.6758003-7.3051987,17.4208984c0.4301987,1.1669998,1.3480988,1.8106003,2.5864124,1.8106003
			c1.5468864,0,3.5609989-1.0058975,6.1098862-2.517601c3.1548004-1.8690987,6.329113-1.9393997,9.1459999-0.2108994
			c1.0257988,0.6299019,1.7518997,1.3652,2.3921127,2.0135994c0.9160004,0.927803,1.779686,1.8038025,3.098587,1.8038025
			c0.6562004,0,1.3480988-0.2266006,2.1171989-0.6944008c1.4990005-0.9110985,2.4101028-2.1054001,2.7070007-3.5536995
			c0.7578011-3.6913986-2.525898-8.6493988-7.6221008-15.7938995
			C37.0855064,33.6679993,34.7803078,32.1231003,32.4082069,32.1231003 M44.9214058,52.1064987
			c-0.1860008,0.905201-0.7528992,1.6191025-1.7870979,2.2470016c-1.1758003,0.7139015-1.5351028,0.4287987-2.7539024-0.8045998
			c-0.6840973-0.6944008-1.5360985-1.5577011-2.7700005-2.3144989C35.9375076,50.2089996,34.1494064,49.6875,32.2964058,49.6875
			c-1.9608994,0-3.9447861,0.5859985-5.8969994,1.7421989c-1.8661995,1.1074028-3.9310989,2.2383003-5.0897865,2.2383003
			c-0.4033127,0-0.5684128-0.1181984-0.710413-0.5019989c-0.8369999-2.2723999-1.0219994-6.3496017,6.9951-15.482399
			l0.1210995-0.1709023c0.019001-0.0341988,1.9759998-3.3895988,4.6928005-3.3895988
			c1.6889992,0,3.4463005,1.2626991,5.2221985,3.7548981C42.2735062,44.3857994,45.5142059,49.2168007,44.9214058,52.1064987"/>
	</g>
</g>
<g id="luka" display="none">
	<g display="inline">
		<path fill="none" stroke="#06C963" stroke-width="2" stroke-miterlimit="10" d="M17.8295441,7.419961
			c-3.2804661,0-4.983551,1.5137157-4.983551,4.6686926v39.6852036c0,3.1539497,1.7030849,4.7941818,5.1100712,4.7941818
			c3.3443432,0,4.9845829-1.6402321,4.9845829-4.7941818v-8.6226959v-2.6706047v-14.637846V17.979126v-5.8902693
			C22.9406471,8.9336767,21.2365322,7.419961,17.8295441,7.419961z"/>
		<path fill="none" stroke="#06C963" stroke-width="2" stroke-miterlimit="10" d="M53.139576,44.3405266
			c0.0366631-2.5543022-1.1161537-4.357502-3.4028854-5.6470337c-0.9308739-0.5249138-1.7786217-1.0037804-2.5872536-1.4608765
			c-4.0481911-2.2882233-6.7189941-3.8111191-9.3250847-5.3015366c-0.9818916-0.5613346-1.9627075-1.1228504-3.0026665-1.7176189
			c-0.8424225-0.4819145-1.7286835-0.9885883-2.6947861-1.5398769c-0.4849644-0.2770214-0.9839249-0.5615768-1.5145206-0.8641338
			c-0.2084217-0.1187744-0.385088-0.2338409-0.5382519-0.3466339l-1.3108215-0.7228718
			c2.710516-2.5281067,8.6814575-8.0934467,11.0699768-10.2928028c1.9343567-1.781312,2.4920464-2.3442631,4.4385414-4.1136751
			c0.8543243-0.7767572,1.8036232-0.5740757,2.1641312,0.4499779c0.103405,0.2935867,0.1879692,0.5603199,0.2399406,0.8145542
			c0.0630341,0.9573097-0.6982918,1.5913105-0.6982918,1.5913105l-11.636219,10.6740046l0.8923607,0.5087662l2.3064079,1.3147087
			c0.9108429-0.845293,1.7098465-1.5849705,2.293129-2.1219063c1.9343567-1.7813129,2.4920464-2.3443241,4.4385414-4.1137352
			c0.8543243-0.7766972,1.9143829-0.2116528,2.2748909,0.8121605c0.4276695,1.2148342,0.1928749,1.9397392-0.9087486,2.8395157
			c-0.9617958,0.7854881-0.498539,0.4069786-1.4283409,1.2278709c-0.9530029,0.8414059-2.18853,1.9254456-3.5611877,3.127779
			l3.0372925,1.7313156c2.1000175-1.8791561,5.6798058-5.0265503,7.3918648-6.5584736
			c0.1717644-0.1537609,0.3310852-0.2966366,0.4617004-0.414753c0.9611397-0.869276,1.265789-1.8785572,0.9470253-3.1238918
			c-0.9818306-3.8344421-1.9428482-7.6742086-2.854229-11.5242014c-0.2983093-1.260047-0.9112587-2.1948099-2.2530022-2.5412049
			c-1.3272057-0.3426867-2.3979073,0.143115-3.3516922,1.0287185c-5.6028366,5.2020206-11.2098007,10.3999138-16.8433208,15.5717926
			c-0.552784,0.5075111-0.9075508,1.052042-1.0768604,1.6471691c0,0-0.1127949,0.487236-0.1168613,0.7615662
			c0,0.0098667-0.0032883,0.0454521-0.0032883,0.0540638c0.0043049,2.9514713,0.0192566,5.903183,0.0290642,8.8546543
			c0.0071774,2.1729202,0.0069981,4.3460236,0.0212917,6.5189438c0.0075951,1.1480904,0.4452534,2.107254,1.5565033,2.7334785
			c7.2428894,4.0829964,14.4714279,8.1890755,21.7189827,12.2644768c1.7993164,1.0119743,3.6449203,0.0616608,3.8236198-1.8314285
			c0.009449-0.1001167,0.0175819-0.2008286,0.0175819-0.3060875C53.1496239,50.9964828,53.0919113,47.6676979,53.139576,44.3405266z
			 M46.9966927,49.6326141c-1.2639351,0-2.2883453-1.0246506-2.2883453-2.2884064
			c0-1.263752,1.0245895-2.2883453,2.2883453-2.2883453s2.2884064,1.0245934,2.2884064,2.2883453
			C49.285099,48.6082039,48.260685,49.6326141,46.9966927,49.6326141z"/>
	</g>
</g>
<g id="est" display="none">
	<path display="inline" fill="#06C963" d="M53.1603241,17.6765003l-3.1288986-3.1260004
		c-0.2373009-0.2451-0.5644798-0.3799-0.919899-0.3799c-0.0547028,0-0.1748009,0.0098-0.2294998,0.0180998
		c-0.3184013,0.0527-0.625,0.2149-0.8526001,0.4487l-2.6893997,2.6890011
		c-0.285202,0.2860985-0.3682022,0.7318993-0.2129021,1.1049995c0.017601,0.0419998,3.5390015,4.2201996,4.5342026,4.2201996
		c0.2646179,0,0.5243988-0.1068993,0.7118988-0.294899l2.6855011-2.6851006
		c0.242218-0.2411995,0.4023972-0.5482998,0.4502182-0.8500996C53.5822258,18.3883991,53.4552269,17.9713993,53.1603241,17.6765003
		 M49.6115265,20.2903004c-0.6329002-0.6016006-1.602581-1.5708008-2.2032013-2.2035999l1.6660004-1.6660995l2.2041016,2.2026997
		L49.6115265,20.2903004z"/>
	<path display="inline" fill="#06C963" d="M39.2433243,27.2287006l-9.4491978,9.450201
		c-0.3907013,0.3901978-0.3907013,1.0229988,0,1.4140968c0.1952991,0.1948013,0.4510994,0.2930031,0.7069988,0.2930031
		c0.2559013,0,0.5117016-0.0982018,0.7070007-0.2930031l9.4492989-9.4501991c0.3906021-0.3906002,0.3906021-1.0228996,0-1.4140987
		C40.2667274,26.8381004,39.6339455,26.8381004,39.2433243,27.2287006"/>
	<path display="inline" fill="#06C963" d="M35.2501259,16.6462002v-2.3603001h0.6083984
		c0.3418007,0,0.6709023-0.1050005,0.8994179-0.2740002c0.3622856-0.2480001,0.5790825-0.6469002,0.5790825-1.0658998V8.5089998
		c0-0.415-0.2040825-0.7997999-0.5506973-1.0468998c-0.2569008-0.1889-0.5879021-0.2929001-0.927803-0.2929001h-8.8563976
		c-0.3379002,0-0.6660004,0.1030002-0.9229012,0.289C25.727726,7.7131,25.525526,8.0958996,25.525526,8.5089998v4.4370003
		c0,0.4160004,0.2040997,0.7997999,0.5674171,1.0600996c0.2577839,0.1802006,0.5810833,0.2798004,0.9091835,0.2798004h0.6103001
		v2.3603001C18.2521267,18.4382,11.1515265,26.677,11.1515265,36.5519981c0,11.1821022,9.0976992,20.278801,20.2793007,20.278801
		s20.2792988-9.0966988,20.2792988-20.278801C51.710125,26.677,44.610527,18.4391994,35.2501259,16.6462002 M28.6124268,12.2859001
		H27.525526V9.1691999h7.8114986v3.1167002h-1.0868988c-0.5527,0-1,0.4482002-1,1v3.0800991
		c-0.6006012-0.0537987-1.205101-0.0928001-1.8192997-0.0928001c-0.6142998,0-1.2178001,0.0390015-1.8183994,0.0928001v-3.0800991
		C29.6124268,12.7341003,29.165226,12.2859001,28.6124268,12.2859001 M31.4308262,54.8307991
		c-10.0790997,0-18.2793007-8.1996994-18.2793007-18.278801s8.2002001-18.2787991,18.2793007-18.2787991
		c10.0791187,0,18.2792988,8.1997013,18.2792988,18.2787991S41.5099449,54.8307991,31.4308262,54.8307991"/>
</g>
<g id="port" display="none">
	<path display="inline" fill="#06C963" d="M21.076685,27.243515h23.0214977c0.5527,0,1-0.4473,1-1V8.7269154
		c0-0.5528002-0.4473-1.0000005-1-1.0000005H21.076685c-0.5528011,0-1,0.4472003-1,1.0000005V26.243515
		C20.076685,26.7962151,20.5238838,27.243515,21.076685,27.243515 M22.076683,9.7269154h21.0205002v15.5174999H22.076683V9.7269154z
		"/>
	<path display="inline" fill="#06C963" d="M19.9633846,45.0667152h-11.085c-0.5527,0-1.0000005,0.4473-1.0000005,1v8.5761986
		c0,0.5527,0.4473004,1,1.0000005,1h11.085c0.5527,0,1-0.4473,1-1v-8.5761986
		C20.9633846,45.5140152,20.5160847,45.0667152,19.9633846,45.0667152 M18.9633846,53.6429138h-9.085v-6.5761986h9.085V53.6429138z"
		/>
	<path display="inline" fill="#06C963" d="M38.0219841,45.0667152H26.9379845c-0.5527,0-1,0.4473-1,1v8.5761986
		c0,0.5527,0.4473,1,1,1h11.0839996c0.5536995,0,1-0.4473,1-1v-8.5761986
		C39.0219841,45.5140152,38.5756836,45.0667152,38.0219841,45.0667152 M37.0219841,53.6429138h-9.085001v-6.5761986h9.085001
		V53.6429138z"/>
	<path display="inline" fill="#06C963" d="M56.0825043,45.0667152h-11.084919c-0.552803,0-1,0.4473-1,1v8.5761986
		c0,0.5527,0.447197,1,1,1h11.084919c0.5527802,0,1-0.4473,1-1v-8.5761986
		C57.0825043,45.5140152,56.6352844,45.0667152,56.0825043,45.0667152 M55.0825043,53.6429138h-9.0849228v-6.5761986h9.0849228
		V53.6429138z"/>
	<path display="inline" fill="#06C963" d="M13.8598843,41.7015152c0.5527,0,1-0.4473,1-1v-3.597702h16.727499v3.597702
		c0,0.5527,0.4473,1,1,1s1-0.4473,1-1v-3.597702h16.5136986v3.597702c0,0.5527,0.4463005,1,1,1c0.5527,0,1-0.4473,1-1v-4.597702
		c0-0.5527-0.4473-1-1-1H33.5873833v-3.8485985c0-0.5527992-0.4473-1-1-1s-1,0.4472008-1,1v3.8485985h-17.727499
		c-0.5528002,0-1,0.4473-1,1v4.597702C12.8598843,41.2542152,13.3070841,41.7015152,13.8598843,41.7015152"/>
</g>
<g id="Layer_12">
	<path fill="#06C963" d="M32.6654396,26.8978157c3.4218826,0,6.2060814-2.7842007,6.2060814-6.2070999
		c0-3.4228001-2.7841988-6.2080011-6.2060814-6.2080011c-3.4228191,0-6.2079983,2.7852011-6.2079983,6.2080011
		C26.4574413,24.113615,29.2426205,26.8978157,32.6654396,26.8978157 M32.6654396,16.4827156
		c2.3193817,0,4.2060814,1.8881989,4.2060814,4.2080002c0,2.3193989-1.8866997,4.2070999-4.2060814,4.2070999
		c-2.3203182,0-4.2079983-1.887701-4.2079983-4.2070999C28.4574413,18.3709145,30.3451214,16.4827156,32.6654396,16.4827156"/>
	<path fill="#06C963" d="M32.0131226,7.488615c-13.5410023,0-24.5576019,11.0165997-24.5576019,24.5576
		c0,13.5419998,11.0165987,24.5596008,24.5576019,24.5596008s24.5575981-11.017601,24.5575981-24.5596008
		C56.5707207,18.5052147,45.5541191,7.488615,32.0131226,7.488615 M32.0131226,54.6058159
		c-12.4385014,0-22.5576019-10.1201019-22.5576019-22.5596008c0-12.4384995,10.1190996-22.5576,22.5576019-22.5576
		s22.5575981,10.1191006,22.5575981,22.5576C54.5707207,44.485714,44.451622,54.6058159,32.0131226,54.6058159"/>
	<path fill="#06C963" d="M38.6420212,42.4163132h-0.3554993V30.2649155c0-0.8730011-0.7109032-1.5839005-1.5848999-1.5839005
		H26.6850204c-0.719799,0-1.3993988,0.3222008-1.9130993,0.9062004c-0.4687996,0.5331993-0.7157993,1.2290001-0.7157993,2.0107994
		c0,0.7860985,0.2587986,1.4785004,0.7479992,2.0047989c0.5107994,0.5474014,1.1786995,0.8472023,1.8808994,0.8472023h0.35742
		v7.9662971h-0.35742c-0.7187996,0-1.3974991,0.3208008-1.9130993,0.9048004
		c-0.4687996,0.5326996-0.7157993,1.2290001-0.7157993,2.0132027c0,0.785099,0.2587986,1.4774971,0.7489986,2.0038986
		c0.5107002,0.5469017,1.1786995,0.847599,1.8799,0.847599h11.9570007c0.6991997,0,1.3671989-0.2997971,1.8808975-0.847599
		c0.4902-0.5243988,0.7490005-1.2178001,0.7490005-2.0038986c0-0.7861023-0.2490005-1.4834023-0.7178001-2.0132027
		C40.0414391,42.7381134,39.3627205,42.4163132,38.6420212,42.4163132 M39.0639191,45.9710159
		c-0.1357994,0.1450005-0.2743988,0.214798-0.4218979,0.214798H26.6850204c-0.1474991,0-0.2852001-0.0682983-0.4179993-0.2118988
		c-0.0908012-0.097599-0.2108994-0.2695007-0.2108994-0.6395988c0-0.2998009,0.0713196-0.5264015,0.2167988-0.6914024
		c0.1338005-0.1518974,0.2685204-0.2266006,0.4120998-0.2266006h1.35742c0.5536804,0,1-0.4473,1-1V33.450016
		c0-0.5522003-0.4463196-1-1-1h-1.35742c-0.1485004,0-0.2852001-0.0688019-0.4179993-0.2108994
		c-0.0908012-0.0982018-0.2108994-0.2701015-0.2108994-0.6411018c0-0.2978992,0.0713196-0.5230007,0.2176991-0.6900005
		c0.1338005-0.1527996,0.2686195-0.2269993,0.4111996-0.2269993h9.6015015v12.7352982c0,0.5527,0.4473,1,1,1h1.3554993
		c0.1436005,0,0.2764206,0.0737,0.4120979,0.2266006c0.1464996,0.1660004,0.2178001,0.392601,0.2178001,0.6914024
		C39.2719193,45.7054138,39.1518211,45.8763161,39.0639191,45.9710159"/>
</g>
</svg>
