<?xml version="1.0" encoding="iso-8859-1"?>
<!-- Generator: Adobe Illustrator 19.0.0, SVG Export Plug-In . SVG Version: 6.00 Build 0)  -->
<svg version="1.1" id="Capa_1" xmlns="http://www.w3.org/2000/svg" xmlns:xlink="http://www.w3.org/1999/xlink" x="0px" y="0px"
	 viewBox="0 0 512 512" style="enable-background:new 0 0 512 512;" xml:space="preserve">
<linearGradient id="SVGID_1_" gradientUnits="userSpaceOnUse" x1="256" y1="514" x2="256" y2="2" gradientTransform="matrix(1 0 0 -1 0 514)">
	<stop  offset="0" style="stop-color:#2AF598"/>
	<stop  offset="1" style="stop-color:#009EFD"/>
</linearGradient>
<path style="fill:url(#SVGID_1_);" d="M509.247,326.795l0.06-0.016l-0.218-0.805c-1.416-7.234-3.333-14.29-5.714-21.131
	l-36.95-136.638l-0.036-0.132c-4.464-16.073-13.665-30.132-26.606-40.655L305.157,17.934C290.937,6.369,273.011,0,254.682,0H0v40
	h254.682c9.165,0,18.127,3.185,25.238,8.967l134.625,109.485c6.457,5.25,11.051,12.261,13.289,20.277l12.455,46.057
	C415.966,209.108,387.027,200,356,200H243l-1.295,0.042c-14.139,0.917-28.569,6.387-39.59,15.005
	c-13.628,10.657-21.474,25.417-22.09,41.56c-0.187,4.883,0.66,9.793,2.587,15.01l0.274,0.74l39.3,85.041
	c2.929,8.928,3.514,16.224,1.595,20.108c-1.292,2.613-4.499,4.794-9.531,6.481c-8.667,2.905-11.334,1.662-12.472,1.132
	c-2.788-1.301-7.559-5.359-14.456-17.308l-0.461-0.798L93.088,234.45l-0.125-0.175C83.828,221.651,79,207.379,79,193v-20H0v40
	h40.917c3.041,15.748,9.66,30.907,19.576,44.636l92.661,130.992c10.634,18.215,25.835,37.169,51.982,37.169
	c3.407,0,7.005-0.331,10.798-1.018c10.853,22.157,26.809,41.396,46.98,56.416C289.981,501.348,322.169,512,356,512
	c86.019,0,156-69.981,156-156C512,346.02,511.047,336.26,509.247,326.795z M243.739,240h7.915
	c-9.775,8.784-18.471,18.825-25.82,29.938l-5.789-12.528C221.015,247.178,234.086,240.831,243.739,240z M356,472
	c-45.125,0-85.188-25.631-104.35-65.242c3.209-3.431,5.886-7.272,7.991-11.532c6.964-14.094,6.992-31.486,0.083-51.695l-0.335-0.98
	l-12.281-26.575C263.839,270.427,307.252,240,356,240c50.185,0,93.024,32.037,109.153,76.731l4.931,18.236
	C471.339,341.791,472,348.819,472,356C472,419.963,419.962,472,356,472z M346,281h40v154h-40v-84.763
	C334.223,357.068,320.566,361,306,361v-40C328.056,321,346,303.056,346,281z"/>
<g>
</g>
<g>
</g>
<g>
</g>
<g>
</g>
<g>
</g>
<g>
</g>
<g>
</g>
<g>
</g>
<g>
</g>
<g>
</g>
<g>
</g>
<g>
</g>
<g>
</g>
<g>
</g>
<g>
</g>
</svg>
