<?xml version="1.0" encoding="iso-8859-1"?>
<!-- Generator: Adobe Illustrator 19.0.0, SVG Export Plug-In . SVG Version: 6.00 Build 0)  -->
<svg version="1.1" id="Capa_1" xmlns="http://www.w3.org/2000/svg" xmlns:xlink="http://www.w3.org/1999/xlink" x="0px" y="0px"
	 viewBox="0 0 511.999 511.999" style="enable-background:new 0 0 511.999 511.999;" xml:space="preserve">
<linearGradient id="SVGID_1_" gradientUnits="userSpaceOnUse" x1="255.9995" y1="514" x2="255.9995" y2="2.001" gradientTransform="matrix(1 0 0 -1 0 514)">
	<stop  offset="0" style="stop-color:#2AF598"/>
	<stop  offset="1" style="stop-color:#009EFD"/>
</linearGradient>
<path style="fill:url(#SVGID_1_);" d="M266.908,0L17.518,249.87c-23.334,23.374-23.334,61.406,0.002,84.781l159.511,159.744
	c11.325,11.341,26.388,17.593,42.415,17.604c0.015,0,0.028,0,0.043,0c16.011,0,31.066-6.23,42.399-17.547l250.093-249.829V0H266.908
	z M471.981,228.043l-238.36,238.108c-3.777,3.772-8.795,5.849-14.132,5.849c-0.005,0-0.01,0-0.015,0
	c-5.343-0.004-10.363-2.088-14.139-5.868L45.826,306.389c-7.778-7.791-7.778-20.468,0.001-28.26L283.5,40h188.48L471.981,228.043
	L471.981,228.043z M367.981,124c0-11.046,8.954-20,20-20s20,8.954,20,20s-8.954,20-20,20S367.981,135.046,367.981,124z"/>
<g>
</g>
<g>
</g>
<g>
</g>
<g>
</g>
<g>
</g>
<g>
</g>
<g>
</g>
<g>
</g>
<g>
</g>
<g>
</g>
<g>
</g>
<g>
</g>
<g>
</g>
<g>
</g>
<g>
</g>
</svg>
